<svg width="64" height="64" viewBox="0 0 64 64" fill="none" xmlns="http://www.w3.org/2000/svg">
<rect width="64" height="64" rx="10.6667" fill="#151414"/>
<path fill-rule="evenodd" clip-rule="evenodd" d="M39.9023 33.4289L36.827 27.8809C35.9561 28.9069 34.7463 29.6363 33.3706 29.896L36.3739 35.3141C37.6554 34.8731 38.844 34.2323 39.9023 33.4289ZM43.1565 39.2996C42.06 40.05 40.8823 40.6904 39.6393 41.2049L42.8557 47.0076L47.1906 50.7026L46.3542 45.0683L43.1565 39.2996Z" fill="white"/>
<path fill-rule="evenodd" clip-rule="evenodd" d="M30.2505 14.6668C30.2505 13.9304 30.8474 13.3335 31.5838 13.3335H32.9172C33.6535 13.3335 34.2505 13.9304 34.2505 14.6668V18.6668H32.9172V19.3808C35.1787 19.7042 36.9172 21.6492 36.9172 24.0002C36.9172 26.5775 34.8278 28.6668 32.2505 28.6668C32.1135 28.6668 31.9779 28.6609 31.8439 28.6494L27.4903 36.5034C28.9763 37.0406 30.5792 37.3335 32.2505 37.3335C36.0584 37.3335 39.5112 35.8132 42.0351 33.3465C42.8065 32.5927 44.0131 32.402 44.8907 33.0289C45.8132 33.6878 46.0149 34.9882 45.2293 35.8055C41.9542 39.2129 37.35 41.3335 32.2505 41.3335C29.8752 41.3335 27.6074 40.8734 25.5314 40.0375L21.6679 47.0074L17.333 50.7024L18.1694 45.0682L22.0104 38.1389C21.0209 37.4532 20.1034 36.6708 19.2717 35.8055C18.4861 34.9881 18.6878 33.6878 19.6103 33.0289C20.4879 32.402 21.6945 32.5927 22.4658 33.3465C22.9339 33.804 23.4339 34.2289 23.9623 34.6176L28.3921 26.626C27.882 25.8779 27.5838 24.9739 27.5838 24.0002C27.5838 21.6492 29.3223 19.7042 31.5838 19.3808V18.6668H30.2505V14.6668ZM30.2505 24.0002C30.2505 22.8956 31.1459 22.0002 32.2505 22.0002C33.3551 22.0002 34.2505 22.8956 34.2505 24.0002C34.2505 25.1047 33.3551 26.0002 32.2505 26.0002C31.1459 26.0002 30.2505 25.1047 30.2505 24.0002Z" fill="#0090DA"/>
</svg>
